Coordinates
version=1
nRows=28
nColumns=23
inDegrees=yes

Units are S.I. units (second, meters, Newtons, ...)
If the header above contains a line with 'inDegrees', this indicates whether rotational values are in degrees (yes) or radians (no).

endheader
time	pelvis_tilt	pelvis_list	pelvis_rotation	pelvis_tx	pelvis_ty	pelvis_tz	hip_flexion_r	hip_adduction_r	hip_rotation_r	knee_angle_r	knee_angle_r_beta	ankle_angle_r	subtalar_angle_r	mtp_angle_r	hip_flexion_l	hip_adduction_l	hip_rotation_l	knee_angle_l	knee_angle_l_beta	ankle_angle_l	subtalar_angle_l	mtp_angle_l
     15.00000000	     -4.20294558	     -2.60884076	     -1.49299143	      2.15762865	      0.97289676	      1.09342562	     10.66523677	      4.18496355	     -6.00662188	     38.16526630	      0.66610956	     26.58848890	      0.11834397	      0.00000000	     28.33355619	     -7.26868593	     -0.26659825	     91.81337186	      1.60244564	      1.07890168	     -7.86974031	      0.00000000
     15.00666667	     -4.80282999	     -1.94833173	     -1.55974873	      2.15790840	      0.97562314	      1.09321781	      9.30687248	      3.54508143	     -5.64052743	     36.68932877	      0.64034959	     26.16112042	      0.62868452	      0.00000000	     30.02656149	     -6.62593624	     -0.80406179	     90.26945744	      1.57549925	      1.67682816	     -7.73727920	      0.00000000
     15.01333333	     -4.20500019	     -1.38681025	     -1.20118455	      2.15942671	      0.98035136	      1.09241906	      6.28902133	      2.80851730	     -6.07970728	     34.58229344	      0.60357488	     25.12300906	      1.44359979	      0.00000000	     30.15355018	     -5.90457005	     -1.12568524	     88.25383467	      1.54031999	      2.29808272	     -7.58969866	      0.00000000
     15.02000000	     -4.27418583	     -0.72189338	     -1.02137852	      2.16066966	      0.98440523	      1.09180578	      4.15624185	      2.07482726	     -6.19910718	     32.68258671	      0.57041875	     23.84713507	      1.95786062	      0.00000000	     30.91767863	     -5.12122705	     -1.61482060	     86.07857556	      1.50235456	      2.83503382	     -7.46407964	      0.00000000
     15.02666667	     -4.35070381	     -0.09507217	     -0.83423723	      2.16209104	      0.98866307	      1.09119508	      2.02795255	      1.41078772	     -6.34197448	     30.70776952	      0.53595168	     22.20130325	      2.40624497	      0.00000000	     31.54080661	     -4.36187066	     -2.11101147	     83.64621480	      1.45990186	      3.30900230	     -7.36006882	      0.00000000
     15.03333333	     -4.51149964	      0.55897213	     -0.59901063	      2.16364251	      0.99292127	      1.09047213	      0.03382964	      0.71782142	     -6.60282205	     28.76013366	      0.50195903	     20.21535434	      2.74913060	      0.00000000	     32.12829329	     -3.50881674	     -2.57811467	     80.98064960	      1.41337897	      3.69976847	     -7.31993838	      0.00000000
     15.04000000	     -4.72988231	      1.17294104	     -0.35282272	      2.16528714	      0.99716875	      1.08973457	     -1.85033690	      0.08590321	     -6.91755074	     26.82948166	      0.46826279	     17.90936738	      3.01595195	      0.00000000	     32.65124476	     -2.67896215	     -3.02873667	     78.09794929	      1.36306635	      4.02550072	     -7.27589715	      0.00000000
     15.04666667	     -5.05886401	      1.76599483	     -0.06431581	      2.16696152	      1.00130143	      1.08892642	     -3.53211181	     -0.51952049	     -7.35163716	     24.99631257	      0.43626796	     15.36648626	      3.19844195	      0.00000000	     33.17838024	     -1.81355876	     -3.42276809	     75.00111461	      1.30901639	      4.28737300	     -7.24241524	      0.00000000
     15.05333333	     -5.40132065	      2.27221966	      0.22693748	      2.16865769	      1.00541091	      1.08812738	     -5.12816670	     -1.00361050	     -7.78502416	     23.21164828	      0.40511969	     12.55735900	      3.28665011	      0.00000000	     33.59961783	     -1.03201453	     -3.79030989	     71.69626329	      1.25133586	      4.49747123	     -7.19327063	      0.00000000
     15.06000000	     -5.86003899	      2.74025221	      0.55351186	      2.17031301	      1.00926406	      1.08725857	     -6.47030154	     -1.46007272	     -8.34578576	     21.60645774	      0.37710383	      9.57072173	      3.33060240	      0.00000000	     34.04011086	     -0.24370423	     -4.09856193	     68.19984917	      1.19031192	      4.67890642	     -7.08048990	      0.00000000
     15.06666667	     -6.31434068	      3.08906777	      0.88889966	      2.17197667	      1.01303259	      1.08641229	     -7.72090031	     -1.76512700	     -8.88833824	     20.10807110	      0.35095205	      6.41051741	      3.27341313	      0.00000000	     34.36204759	      0.42011384	     -4.37960446	     64.51607715	      1.12601797	      4.84121235	     -6.91360785	      0.00000000
     15.07333333	     -6.85776149	      3.37178237	      1.25059631	      2.17357237	      1.01653112	      1.08552649	     -8.71667184	     -2.02842229	     -9.55742779	     18.85647515	      0.32910758	      3.25729819	      3.20830832	      0.00000000	     34.67717499	      1.04247212	     -4.62489304	     60.66249389	      1.05876025	      5.04403189	     -6.58373303	      0.00000000
     15.08000000	     -7.33111002	      3.51607612	      1.58829205	      2.17512153	      1.01996805	      1.08471321	     -9.69178501	     -2.08604544	     -9.96468440	     17.67826883	      0.30854400	     -0.00616494	      2.73086209	      0.00000000	     34.80899298	      1.49326860	     -4.89584702	     56.64430100	      0.98862955	      5.28075452	     -6.10265130	      0.00000000
     15.08666667	     -7.86237471	      3.62329076	      2.00807231	      2.17660686	      1.02303538	      1.08371523	    -10.38627092	     -2.20887067	    -10.84850626	     16.93865619	      0.29563532	     -2.99959514	      2.78368892	      0.00000000	     34.90931318	      1.98361462	     -5.10051912	     52.48776699	      0.91608435	      5.59953305	     -5.40906155	      0.00000000
     15.09333333	     -8.32470464	      3.64716418	      2.40061205	      2.17804749	      1.02593601	      1.08271509	    -11.01921078	     -2.23409290	    -11.57584095	     16.39994658	      0.28623306	     -5.87559042	      2.60561128	      0.00000000	     34.83384153	      2.37114705	     -5.36560023	     48.20703723	      0.84137152	      5.98844363	     -4.46577139	      0.00000000
     15.10000000	     -9.03283042	      3.55980558	      2.76544067	      2.17927594	      1.02819414	      1.08165824	    -11.12996269	     -2.23055352	    -12.33270256	     16.32997960	      0.28501191	     -8.40056638	      2.56252108	      0.00000000	     34.96758251	      2.66274618	     -5.65325279	     43.88531185	      0.76594319	      6.48009503	     -3.30038944	      0.00000000
     15.10666667	     -9.09813387	      3.57972450	      3.16927222	      2.18067928	      1.03090866	      1.08048299	    -11.92749762	     -2.26273256	    -13.00227644	     16.28097315	      0.28415659	    -10.67894032	      2.10343294	      0.00000000	     34.25329520	      3.08833574	     -5.99616529	     39.40754110	      0.68779134	      7.05941543	     -1.74451454	      0.00000000
     15.11333333	     -9.52078061	      3.46374507	      3.57136720	      2.18167508	      1.03268578	      1.07914499	    -12.02636415	     -2.26020196	    -13.65618109	     16.83150937	      0.29376526	    -12.53489653	      1.72174433	      0.00000000	     33.93681678	      3.46737590	     -6.20069723	     35.03494733	      0.61147518	      7.67792693	     -0.14865515	      0.00000000
     15.12000000	     -9.84928017	      3.41619655	      3.94644804	      2.18264680	      1.03417375	      1.07773102	    -12.10603664	     -2.34647952	    -14.17444035	     17.64514746	      0.30796592	    -13.93710753	      1.29883618	      0.00000000	     33.42191980	      3.95229310	     -6.37753521	     30.65078426	      0.53495710	      8.38283925	      1.58463251	      0.00000000
     15.12666667	     -9.87340773	      3.45617799	      4.24004812	      2.18337716	      1.03549215	      1.07633850	    -12.28814275	     -2.58619283	    -14.65003908	     18.93034950	      0.33039693	    -14.88398400	      0.76689639	      0.00000000	     32.53520798	      4.49947672	     -6.58684403	     26.36183144	      0.46010076	      8.96725410	      3.35784456	      0.00000000
     15.13333333	     -9.80310845	      3.54475294	      4.47904030	      2.18392124	      1.03644567	      1.07494584	    -12.39198767	     -2.92548270	    -15.01789843	     20.59461644	      0.35944387	    -15.32998695	      0.56179078	      0.00000000	     31.50527381	      5.12865293	     -6.59886096	     22.21027105	      0.38764236	      9.48717217	      4.84925568	      0.00000000
     15.14000000	     -9.92272790	      3.54028575	      4.80513288	      2.18413755	      1.03659743	      1.07344488	    -12.13638712	     -3.12239405	    -15.03777054	     22.54580640	      0.39349855	    -15.50724645	     -0.21907261	      0.00000000	     30.78150788	      5.71461380	     -6.41291451	     18.48684025	      0.32265623	     10.04991351	      6.36708604	      0.00000000
     15.14666667	     -9.80777321	      3.75046761	      4.94922488	      2.18412078	      1.03649268	      1.07219104	    -11.88713562	     -3.61858716	    -14.89157482	     25.01462109	      0.43658750	    -15.29488765	     -0.90095333	      0.00000000	     29.76771244	      6.40498204	     -6.29021910	     14.96623046	      0.26121000	     10.18735121	      7.34698323	      0.00000000
     15.15333333	     -9.66775403	      3.93729937	      5.16142079	      2.18383423	      1.03593604	      1.07100602	    -11.52241832	     -4.07681277	    -14.71549762	     27.75818249	      0.48447168	    -14.71195479	     -1.27494709	      0.00000000	     28.71968612	      7.15186869	     -5.42658261	     11.70020858	      0.20420716	     10.03898332	      7.12824453	      0.00000000
     15.16000000	     -9.51156339	      4.11811336	      5.39826932	      2.18326719	      1.03488512	      1.06989524	    -11.04241280	     -4.40142034	    -14.09701258	     30.68271821	      0.53551446	    -14.10416590	     -2.32132266	      0.00000000	     27.96952778	      7.71480757	     -5.33279002	      9.39406953	      0.16395744	     10.13858471	      8.01328674	      0.00000000
     15.16666667	     -9.33199769	      4.31751522	      5.54687546	      2.18235045	      1.03341947	      1.06909678	    -10.38040936	     -4.75925462	    -13.37947898	     33.93250182	      0.59223388	    -13.32905780	     -3.11263295	      0.00000000	     27.32768764	      8.21518452	     -5.17577440	      7.64904079	      0.13350095	     10.01393558	      8.20184365	      0.00000000
     15.17333333	     -9.05807368	      4.57913769	      5.84360343	      2.18129588	      1.03164649	      1.06825496	     -9.75664081	     -5.08154199	    -12.69232724	     37.29707475	      0.65095676	    -12.56355767	     -4.10710256	      0.00000000	     26.77351419	      8.76401000	     -5.09010698	      6.63739314	      0.11584436	      9.90302884	      8.52204030	      0.00000000
     15.18000000	     -8.72680811	      4.86515149	      6.18504933	      2.18001216	      1.02953594	      1.06747673	     -9.08059234	     -5.40753940	    -12.08230170	     40.82588542	      0.71254612	    -11.79612826	     -5.02277565	      0.00000000	     26.33937772	      9.29453126	     -5.01851745	      6.31911052	      0.11028928	      9.73965768	      8.65633518	      0.00000000
